<svg xmlns="http://www.w3.org/2000/svg" height="800" width="1200" clip-rule="evenodd" fill-rule="evenodd" image-rendering="optimizeQuality" shape-rendering="geometricPrecision" text-rendering="geometricPrecision" viewBox="-1328.7 -461.75 11515.4 2770.5"><defs><linearGradient y2=".008" x2="7465.74" y1="1846.76" x1="7465.74" gradientUnits="userSpaceOnUse" id="a"><stop offset="0" stop-color="#420507"/><stop offset=".702" stop-color="#5d0e12"/><stop offset=".631" stop-color="#f22435"/><stop offset="1" stop-color="#78181e"/></linearGradient><linearGradient y2="1282.53" x2="6864.67" y1="1282.53" x1="0" gradientUnits="userSpaceOnUse" id="b"><stop offset="0" stop-color="#7d1316"/><stop offset=".741" stop-color="#f22435"/><stop offset="1" stop-color="#a81e27"/></linearGradient></defs><path d="M8858 0c-833 184-1685 368-2522 552l1714-75c227-184 494-344 808-477zM6210 579l-96 22 1594 199c76-85 158-166 247-244zm-137 39c201 39 369 100 506 180l936 241c41-57 84-113 130-167zm598 240c306 223 429 564 420 989 96-261 219-510 375-739z" fill="url(#a)"/><path d="M213 1584c-42 0-77-4-104-11-28-7-49-18-65-31-17-13-28-29-34-48-7-19-10-41-10-64v-55c0-24 3-46 9-65s17-35 32-48c15-14 35-24 62-31 26-6 59-10 99-10h431v-13c0-37-7-62-22-74-15-13-41-19-77-19H375v-114h159c47 0 86 4 119 13 33 8 59 21 80 39s36 40 46 67c9 27 14 59 14 96v142c0 42-4 78-12 106-8 29-23 52-43 70s-48 31-82 38c-34 8-77 12-128 12zm420-264H220c-18 0-33 4-44 13-10 8-16 23-16 46v40c0 21 6 35 17 43 12 8 28 12 49 12h300c18 0 35-2 48-4 14-3 25-8 33-16 9-8 15-18 20-32 4-13 6-31 6-52zm282 264V813h163v771zm566 0c-53 0-98-5-134-14s-65-23-86-43c-22-20-37-45-46-77s-13-71-13-118V813h160v189h324c54 0 99 4 135 13s64 24 86 43c21 20 37 46 46 78s13 72 13 118v79c0 46-4 85-13 117s-25 58-46 77c-22 20-50 34-86 43s-81 14-135 14zm325-325c0-26-2-46-5-62-4-15-10-28-20-36-9-9-22-14-38-18-17-3-38-5-63-5h-318v190c0 24 2 43 5 58 4 16 10 28 20 37 9 9 22 15 38 19 16 3 37 5 62 5h193c25 0 46-2 63-5 16-4 29-10 38-19 10-9 16-21 20-37 3-15 5-35 5-59zm470 325c-43 0-77-4-105-11-27-7-48-18-65-31-16-13-27-29-33-48-7-19-10-41-10-64v-55c0-24 3-46 9-65s17-35 32-48c15-14 35-24 61-31 27-6 60-10 100-10h431v-13c0-37-8-62-23-74-15-13-40-19-76-19h-159v-114h159c47 0 86 4 119 13 32 8 59 21 80 39s36 40 46 67c9 27 14 59 14 96v142c0 42-4 78-12 106-8 29-23 52-43 70-21 18-48 31-82 38-34 8-77 12-128 12zm420-264h-413c-18 0-33 4-44 13-11 8-16 23-16 46v40c0 21 6 35 17 43 12 8 28 12 48 12h301c18 0 34-2 48-4 14-3 25-8 33-16 9-8 15-18 20-32 4-13 6-31 6-52zm784-137l-173 359c-9 18-21 32-35 42-15 10-33 16-55 16-24 0-42-6-55-16s-23-24-31-42l-233-541h162l168 392 167-348c10-19 21-34 34-45 12-10 30-15 54-15 23 0 41 5 54 14 13 10 24 25 33 46l158 348 176-392h159l-244 541c-8 16-19 30-34 41-14 11-32 17-54 17-21 0-38-6-53-17s-26-25-34-41zm656 401v-568h164v568zm55-616c-20 0-34-4-42-12s-13-21-13-38v-62c0-17 5-30 13-37 8-8 22-12 42-12h53c21 0 35 4 43 12 9 7 13 20 13 37v62c0 17-4 30-13 38-8 8-22 12-43 12zm827 616v-325c0-24-2-44-6-60-4-15-11-27-20-36-10-9-23-16-40-19-17-4-38-6-64-6h-174c-25 0-46 2-63 6-17 3-30 10-41 19-10 9-17 21-20 36-4 16-6 36-6 60v325h-161v-330c0-46 5-86 14-118s24-58 46-78c21-19 50-34 86-43 35-9 80-13 134-13h194c55 0 100 4 136 13s64 24 86 43c21 20 37 46 46 78s13 72 13 118v330zm596 174v-131h223c24 0 41-5 51-14 10-10 15-26 15-49v-47h-366c-44 0-82-4-113-11s-57-18-76-34c-19-15-33-35-42-60s-13-55-13-90v-89c0-44 4-81 11-111 8-30 21-54 40-72s45-30 78-38c32-7 73-11 123-11h260c48 0 88 4 121 13 32 8 58 22 78 41 20 18 34 42 42 72 8 29 12 65 12 106v340c0 65-16 112-48 141s-85 44-158 44zm289-522c0-38-8-65-23-78-15-14-42-21-82-21h-251c-37 0-63 7-77 21-13 14-20 41-20 79v77c0 15 2 28 5 38s8 19 16 25 17 10 30 12c12 2 27 3 46 3h356zm962 193c0 28-3 53-8 72-5 20-15 36-29 48-15 12-35 21-61 26-25 6-58 9-99 9h-502v-126h480c22 0 37-4 46-11 8-7 13-21 13-41v-19c0-22-5-35-13-41-8-5-22-8-41-8h-327c-33 0-60-3-80-9-21-7-36-16-48-29-11-13-19-29-23-48s-6-41-6-67v-44c0-25 3-47 8-65s14-32 26-43c13-12 29-20 50-25s47-7 78-7h222v121h-183c-16 0-27 3-34 9s-10 16-10 31v27c0 16 3 28 10 33 6 6 16 9 31 9h317c37 0 67 3 91 9s42 16 56 29 23 31 28 52 8 47 8 78z" fill="url(#b)"/></svg>