<?xml version="1.0" encoding="UTF-8" standalone="no"?>
<!-- Created with Inkscape (http://www.inkscape.org/) -->

<svg
   xmlns:dc="http://purl.org/dc/elements/1.1/"
   xmlns:cc="http://creativecommons.org/ns#"
   xmlns:rdf="http://www.w3.org/1999/02/22-rdf-syntax-ns#"
   xmlns:svg="http://www.w3.org/2000/svg"
   xmlns="http://www.w3.org/2000/svg"
   xmlns:sodipodi="http://sodipodi.sourceforge.net/DTD/sodipodi-0.dtd"
   xmlns:inkscape="http://www.inkscape.org/namespaces/inkscape"
   width="223.68599"
   height="52.460758"
   viewBox="0 0 59.183586 13.880242"
   version="1.1"
   id="svg36202"
   inkscape:version="0.92.0 r15299"
   sodipodi:docname="alitalia.svg">
  <defs
     id="defs36196" />
  <sodipodi:namedview
     id="base"
     pagecolor="#ffffff"
     bordercolor="#666666"
     borderopacity="1.0"
     inkscape:pageopacity="0.0"
     inkscape:pageshadow="2"
     inkscape:zoom="2.8050722"
     inkscape:cx="159.88893"
     inkscape:cy="4.8864438"
     inkscape:document-units="mm"
     inkscape:current-layer="layer1"
     showgrid="false"
     inkscape:window-width="1280"
     inkscape:window-height="744"
     inkscape:window-x="-4"
     inkscape:window-y="-4"
     inkscape:window-maximized="1"
     fit-margin-top="0"
     fit-margin-left="0"
     fit-margin-right="0"
     fit-margin-bottom="0"
     units="px" />
  <metadata
     id="metadata36199">
    <rdf:RDF>
      <cc:Work
         rdf:about="">
        <dc:format>image/svg+xml</dc:format>
        <dc:type
           rdf:resource="http://purl.org/dc/dcmitype/StillImage" />
        <dc:title></dc:title>
      </cc:Work>
    </rdf:RDF>
  </metadata>
  <g
     inkscape:label="Layer 1"
     inkscape:groupmode="layer"
     id="layer1"
     transform="translate(-39.332166,-156.87997)">
    <g
       id="g36246"
       transform="translate(0.13229135,-0.13228981)">
      <path
         d="m 51.831966,170.76014 1.102,-7.8355 -7.5295,7.8355"
         style="fill:#be210c;fill-opacity:1;fill-rule:nonzero;stroke:none;stroke-width:0.03529824"
         id="path32023"
         inkscape:connector-curvature="0" />
      <path
         d="m 54.414066,157.14455 c -1.4391,0 -2.4402,0.37098 -3.7311,1.77727 l -11.3508,11.83832 h 4.3223 l 11.1951,-11.6583 -1.6385,11.6583 h 3.3194 l 1.91,-13.61559"
         style="fill:#00663f;fill-opacity:1;fill-rule:nonzero;stroke:none;stroke-width:0.03529824"
         id="path32025"
         inkscape:connector-curvature="0" />
      <path
         d="m 75.172267,168.92675 c -0.1691,-0.12778 -0.255302,-0.31945 -0.255302,-0.57607 0,-0.60572 0.369301,-1.05753 1.0819,-1.18002 0.146201,-0.0247 0.474401,-0.0395 0.654802,-0.0395 h 0.9541 l -0.278802,1.99011 h -1.3975 c -0.3424,0 -0.585599,-0.0639 -0.759198,-0.19449 m -0.7,-6.36145 -1.025401,1.67243 h 3.5979 c 0.6926,0 0.871201,0.21144 0.871201,0.6036 0,0.11719 -0.01799,0.27003 -0.043,0.4317 -0.01,0.0402 -0.01799,0.11578 -0.033,0.21885 h -1.480699 c -1.5334,0 -2.521,0.19484 -3.3025,0.99011 -0.442702,0.45111 -0.774502,1.22203 -0.774502,2.20191 0,0.75961 0.322701,1.34521 0.884301,1.68337 0.3738,0.22556 1.061,0.39287 2.059598,0.39287 h 4.785001 l 0.672099,-4.78009 c 0.06,-0.43028 0.125701,-0.86269 0.125701,-1.43911 0,-0.67384 -0.312099,-1.32227 -1.1451,-1.68196 -0.4645,-0.20014 -1.093201,-0.29368 -1.914899,-0.29368 z m 18.1429,6.36145 c -0.169799,-0.12778 -0.255201,-0.31945 -0.255201,-0.57607 0,-0.60572 0.369202,-1.05753 1.081899,-1.18002 0.145802,-0.0247 0.474401,-0.0395 0.654402,-0.0395 h 0.953799 l -0.278101,1.99011 h -1.3975 c -0.343498,0 -0.585599,-0.0639 -0.759298,-0.19449 m -1.373399,-6.36145 -0.234802,1.67243 h 3.4808 c 0.691801,0 0.870802,0.21144 0.870802,0.6036 0,0.11719 -0.01799,0.27003 -0.043,0.4317 -0.01,0.0402 -0.01799,0.11578 -0.033,0.21885 h -1.480701 c -1.533797,0 -2.521399,0.19484 -3.3025,0.99011 -0.443001,0.45111 -0.774501,1.22203 -0.774501,2.20191 0,0.75961 0.323001,1.34521 0.8835,1.68337 0.3742,0.22556 1.0614,0.39287 2.059702,0.39287 h 4.785698 l 0.671402,-4.78009 c 0.061,-0.43028 0.126,-0.86269 0.126,-1.43911 0,-0.67384 -0.311701,-1.32227 -1.1454,-1.68196 -0.463802,-0.20014 -1.092502,-0.29368 -1.9143,-0.29368 z m -27.868702,-3.4e-4 -1.1521,8.19519 h 2.91 l 1.151399,-8.19519 z m 23.400601,0 -1.1518,8.19519 h 2.910401 l 1.151397,-8.19519 z m -27.418201,-2.00672 -1.4339,10.2019 h 2.9097 l 1.4338,-10.2019 z m 4.2996,0 -0.198,1.40417 h 2.9104 l 0.197299,-1.40417 z m 4.2789,0 -1.0618,7.56759 c -0.059,0.42217 -0.094,0.74938 -0.094,0.95729 0,0.30886 0.024,0.45605 0.073,0.64102 0.194101,0.74726 0.770599,1.036 1.649101,1.036 h 2.7907 l 0.251698,-1.67243 h -1.150699 c -0.482899,0 -0.658699,-0.15426 -0.658699,-0.47123 0,-0.0995 0.01101,-0.23438 0.036,-0.40629 l 0.558099,-3.97246 h 1.978102 l 1.0247,-1.67243 h -2.7681 l 0.282098,-2.00706 z m 14.839,0 -1.4341,10.2019 h 2.9103 l 1.434201,-10.2019 z m 4.2828,0 -0.1977,1.40417 h 2.910301 l 0.197699,-1.40417"
         style="fill:#00663f;fill-opacity:1;fill-rule:nonzero;stroke:none;stroke-width:0.03529824"
         id="path32027"
         inkscape:connector-curvature="0" />
    </g>
  </g>
</svg>
